<?xml version="1.0" encoding="UTF-8" standalone="no"?>
<svg
   xmlns:dc="http://purl.org/dc/elements/1.1/"
   xmlns:cc="http://creativecommons.org/ns#"
   xmlns:rdf="http://www.w3.org/1999/02/22-rdf-syntax-ns#"
   xmlns:svg="http://www.w3.org/2000/svg"
   xmlns="http://www.w3.org/2000/svg"
   style="height: 512px; width: 512px;"
   viewBox="0 0 512 512"
   version="1.1"
   id="svg8">
  <metadata
     id="metadata14">
    <rdf:RDF>
      <cc:Work
         rdf:about="">
        <dc:format>image/svg+xml</dc:format>
        <dc:type
           rdf:resource="http://purl.org/dc/dcmitype/StillImage" />
        <dc:title></dc:title>
      </cc:Work>
    </rdf:RDF>
  </metadata>
  <defs
     id="defs12" />
  <g
     aria-label="F"
     style="font-style:normal;font-weight:normal;font-size:520px;line-height:1.25;font-family:sans-serif;letter-spacing:0px;word-spacing:0px;fill:#ffffff;fill-opacity:1;stroke:none"
     id="text823">
    <path
       d="m 292.39304,125.13108 h -109.72 c -13.52,0 -28.08,-1.56 -28.08,-1.56 l -1.04,1.56 c 3.12,21.84 4.16,48.36 4.16,78 v 95.16 c 0,29.64 -1.04,57.2 -4.16,78 l 0.52,1.56 c 0,0 15.08,-1.56 28.6,-1.56 13.52,0 28.08,1.56 28.08,1.56 l 1.04,-1.56 c -3.12,-21.84 -4.16,-48.36 -4.16,-78 v -45.24 c 18.72,0 60.32,1.56 86.84,4.16 l 1.56,-1.04 c -1.04,-3.64 -1.56,-9.36 -1.56,-13 0,-3.64 0.52,-8.84 1.56,-12.48 l -1.56,-1.04 c -22.88,1.56 -41.08,3.64 -86.84,3.64 v -30.16 c 0,-6.76 0.52,-46.28 3.12,-55.64 52,0 106.08,4.68 106.08,4.68 l 1.04,-1.56 c -0.52,-3.12 -1.04,-8.32 -1.04,-11.96 0,-3.12 0.52,-8.32 1.04,-13.52 l -1.04,-1.56 c -6.24,1.04 -15.08,1.56 -24.44,1.56 z M 95.833043,24.251084 H 393.27304 c 31.2,0 43.16,17.16 43.16,48.36 V 425.17108 c 0,31.2 -11.96,43.16 -43.16,43.16 H 95.833043 c -31.2,0 -48.36,-11.96 -48.36,-43.16 V 72.611084 c 0,-31.2 17.16,-48.36 48.36,-48.36 z M 486.35304,441.29108 V 72.611084 c 0,-46.8 -30.68,-67.08 -77.48,-67.08 H 95.833043 c -42.12,0 -67.08,23.92 -67.08,67.08 V 441.29108 c 0,46.8 20.28,66.56 67.08,66.56 H 424.47304 c 46.8,0 61.88,-19.76 61.88,-66.56 z"
       style="font-style:normal;font-variant:normal;font-weight:normal;font-stretch:normal;font-size:520px;font-family:'Linux Biolinum Keyboard O';-inkscape-font-specification:'Linux Biolinum Keyboard O';fill:#ffffff;fill-opacity:1"
       id="path825" />
  </g>
</svg>
